<svg xmlns="http://www.w3.org/2000/svg" width="42" height="42" viewBox="0 0 42 42"><g transform="translate(23.133 10.008)"><path d="M293.678,137.319a3.273,3.273,0,0,0-5.612-3.362l-4.825,7.493A7.777,7.777,0,0,0,282,145.668v7.093a1.231,1.231,0,0,0,1.23,1.23h12.3a1.231,1.231,0,0,0,1.23-1.23v-5.5l4.1-9.024V125.076a3.076,3.076,0,0,0-6.152,0v10.386l-4.734,8.522" transform="translate(-282 -122)" fill="#fac394"></path><path d="M381.925,238.106v3.938l-4.826,8.688a1.23,1.23,0,0,0,2.21,1.072l3.73-6.707A5.746,5.746,0,0,0,381.925,238.106Z" transform="translate(-369.21 -228.582)" fill="#f0b47f"></path></g><g transform="translate(0 10.008)"><path d="M7.189,137.319a3.273,3.273,0,0,1,5.612-3.362l4.825,7.493a7.777,7.777,0,0,1,1.241,4.219v7.093a1.23,1.23,0,0,1-1.23,1.23H5.332a1.23,1.23,0,0,1-1.23-1.23v-5.5L0,138.242V125.076a3.076,3.076,0,0,1,6.152,0v10.386l4.734,8.522" transform="translate(0 -122)" fill="#ffd5b2"></path><path d="M54.477,238.106v3.938l4.826,8.688a1.23,1.23,0,0,1-2.21,1.072l-3.73-6.707A5.746,5.746,0,0,1,54.477,238.106Z" transform="translate(-48.324 -228.582)" fill="#fac394"></path></g><g transform="translate(11.566 0)"><path d="M150.434,23.789a1.23,1.23,0,0,1-.354-.052,12.741,12.741,0,0,1-9.08-12.2V4.512a1.23,1.23,0,0,1,1.23-1.23,4.056,4.056,0,0,0,3.648-2.255l.173-.346a1.23,1.23,0,0,1,1.1-.68h6.563a1.231,1.231,0,0,1,1.1.68l.173.346a4.056,4.056,0,0,0,3.648,2.255,1.23,1.23,0,0,1,1.23,1.23v7.022a12.741,12.741,0,0,1-9.08,12.2A1.23,1.23,0,0,1,150.434,23.789Z" transform="translate(-141 0)" fill="#9ddff6"></path><path d="M264.2,3.281a4.057,4.057,0,0,1-3.648-2.255L260.382.68a1.23,1.23,0,0,0-1.1-.68H256V23.789a1.23,1.23,0,0,0,.354-.052,12.741,12.741,0,0,0,9.08-12.2V4.512A1.231,1.231,0,0,0,264.2,3.281Z" transform="translate(-246.566 0)" fill="#6ba7ff"></path><path d="M171,33.167v5.906a10.213,10.213,0,0,0,6.973,9.734,10.213,10.213,0,0,0,6.973-9.734V33.167A6.492,6.492,0,0,1,180.505,30H175.44A6.492,6.492,0,0,1,171,33.167Z" transform="translate(-168.539 -27.539)" fill="#f5f5ff"></path><path d="M258.533,30H256V48.806a10.213,10.213,0,0,0,6.973-9.734V33.167A6.492,6.492,0,0,1,258.533,30Z" transform="translate(-246.566 -27.539)" fill="#e2e7fa"></path><path d="M202.125,108.817a1.226,1.226,0,0,1-.87-.36l-2.32-2.32a1.23,1.23,0,0,1,1.74-1.74l1.45,1.45,3.77-3.77a1.23,1.23,0,0,1,1.74,1.74l-4.64,4.64A1.227,1.227,0,0,1,202.125,108.817Z" transform="translate(-193.852 -93.372)" fill="#6b61b1"></path><path d="M258.61,102.076l-2.61,2.61v3.48l4.35-4.35a1.23,1.23,0,0,0-1.74-1.74Z" transform="translate(-246.566 -93.372)" fill="#453d81"></path></g></svg>