<svg xmlns="http://www.w3.org/2000/svg" width="37.47" height="42" viewBox="0 0 37.47 42"><g transform="translate(-27.628 0)"><path d="M306.871,2.547,300.79.09a1.231,1.231,0,0,0-1.6.68l-7.265,17.98a1.231,1.231,0,0,0,1,1.682c7.235.858,6.79.809,6.9.809a1.23,1.23,0,0,0,1.14-.769l6.6-16.324a1.231,1.231,0,0,0-.68-1.6Z" transform="translate(-242.544 0)" fill="#d8e5fb"></path><path d="M416.045,74.194l-.922,2.28-2.965-1.2a1.23,1.23,0,1,1,.922-2.28Z" transform="translate(-352.297 -66.928)" fill="#bdd8fc"></path><path d="M395.065,126.115l-.922,2.28-2.965-1.2a1.23,1.23,0,1,1,.922-2.28Z" transform="translate(-333.037 -114.593)" fill="#bdd8fc"></path><path d="M240.044,122.376v6.8a1.23,1.23,0,0,1-2.46,0v-6.8a1.23,1.23,0,0,1,2.46,0Z" transform="translate(-192.742 -111.213)" fill="#9d5e4a"></path><path d="M253.814,122.376v6.8a1.23,1.23,0,0,1-1.23,1.23v-9.256A1.23,1.23,0,0,1,253.814,122.376Z" transform="translate(-206.512 -111.213)" fill="#4f4540"></path><path d="M208.283,8.113a4.507,4.507,0,0,1-4.695,4.505,4.12,4.12,0,0,1-3.165-6.474c1.348-1.946,2.12-3.649,2.12-4.673a1.231,1.231,0,0,1,2.1-.87c2.109,2.11,3.64,5.268,3.64,7.511Z" transform="translate(-157.948 -0.221)" fill="#ffe278"></path><path d="M256.848,8.4a4.506,4.506,0,0,1-4.263,4.5V.556a1.228,1.228,0,0,1,.624.335C255.317,3,256.848,6.159,256.848,8.4Z" transform="translate(-206.512 -0.51)" fill="#ffc178"></path><path d="M85.2,9.054,82.581,1.1a1.23,1.23,0,0,0-2.337,0L77.621,9.054c-.082.248-.061.286-.061,1.7h7.707A6,6,0,0,0,85.2,9.054Z" transform="translate(-45.836 -0.235)" fill="#f2d1a3"></path><path d="M128.438,9.439v1.312h-3.854V.256a1.23,1.23,0,0,1,1.168.844C128.611,9.766,128.438,9.154,128.438,9.439Z" transform="translate(-89.007 -0.235)" fill="#edbc85"></path><path d="M85.291,112.256v9.431a1.23,1.23,0,0,1-1.23,1.23H78.814a1.23,1.23,0,0,1-1.23-1.23v-9.431Z" transform="translate(-45.86 -103.052)" fill="#bee75e"></path><path d="M128.438,112.256v9.431a1.23,1.23,0,0,1-1.23,1.23h-2.624v-10.66Z" transform="translate(-89.007 -103.052)" fill="#00da80"></path><path d="M108.892,2.224h-3.078l.371-1.123a1.23,1.23,0,0,1,2.337,0Z" transform="translate(-71.776 -0.235)" fill="#00b4bc"></path><path d="M126.123,2.224h-1.539V.256a1.23,1.23,0,0,1,1.168.844Z" transform="translate(-89.007 -0.235)" fill="#0a617d"></path><path d="M99.788,203.608a14.286,14.286,0,0,1-3.62-9.332H79.139a23.441,23.441,0,0,1-2.7,5.939,3.852,3.852,0,0,0-5.1,5.738,23.789,23.789,0,0,1-3.945,2.6,1.23,1.23,0,0,0-.321,1.9,13.972,13.972,0,0,0,3.07,2.535,7.215,7.215,0,0,1,3.4,6.126,1.23,1.23,0,0,0,1.23,1.23H86.584a1.23,1.23,0,0,0,1.23-1.23v-2.86a10.252,10.252,0,0,0,8.95-9.111H98.2a2.126,2.126,0,0,0,1.588-3.539Z" transform="translate(-35.921 -178.347)" fill="#ffddce"></path><path d="M268.387,207.147h-1.436a10.252,10.252,0,0,1-8.95,9.111v2.86a1.23,1.23,0,0,1-1.23,1.23h-4.628V194.276h14.212a14.286,14.286,0,0,0,3.62,9.332,2.126,2.126,0,0,1-1.588,3.539Z" transform="translate(-206.108 -178.347)" fill="#ffcbbc"></path><path d="M312.067,244.811a2.311,2.311,0,0,0-2.571,0,1.23,1.23,0,1,1-1.364-2.047,4.765,4.765,0,0,1,5.3,0,1.23,1.23,0,1,1-1.364,2.047Z" transform="translate(-257.002 -222.121)" fill="#f9a58b"></path><path d="M347.051,383.165a10.189,10.189,0,0,1-1.9,1.675,11.473,11.473,0,0,1-2.823-3.281,1.23,1.23,0,0,1,2.159-1.178A8.6,8.6,0,0,0,347.051,383.165Z" transform="translate(-288.759 -348.605)" fill="#f9a58b"></path><path d="M46.072,194.275c-.007.052-.109.494-.123.547a22.266,22.266,0,0,1-3.487,6.969,1.231,1.231,0,0,1-1.882.17l-.524-.524a2.624,2.624,0,0,0-3.711,3.711l.813.813a1.229,1.229,0,0,1-.086,1.818,24.375,24.375,0,0,1-4.416,2.929l-.817.453a13.7,13.7,0,0,1-2.654-16.232,1.228,1.228,0,0,1,1.088-.654h15.8Z" transform="translate(0 -178.346)" fill="#b48e6e"></path></g></svg>