<svg xmlns="http://www.w3.org/2000/svg" width="36.914" height="42" viewBox="0 0 36.914 42"><g transform="translate(-31)"><path d="M277.152,344.3H272.23a1.23,1.23,0,0,1,0-2.461h4.922a3.7,3.7,0,0,0,3.691-3.691v-4.922a1.23,1.23,0,0,1,2.461,0v4.922A6.159,6.159,0,0,1,277.152,344.3Z" transform="translate(-220.313 -304.766)" fill="#1e3799"></path><path d="M67.914,18.457v4.922l-2.461,2.937V18.457a16,16,0,1,0-31.992,0v8.252L31,23.379V18.457a18.457,18.457,0,1,1,36.914,0Z" transform="translate(0)" fill="#1e3799"></path><path d="M274.457,18.457v4.922L272,26.316V18.457a16.027,16.027,0,0,0-16-16V0A18.464,18.464,0,0,1,274.457,18.457Z" transform="translate(-206.543)" fill="#1e3799"></path><path d="M37.152,252.469H34.691A3.7,3.7,0,0,1,31,248.777v-5.086A3.7,3.7,0,0,1,34.691,240h2.461a1.23,1.23,0,0,1,1.23,1.23v10.008A1.23,1.23,0,0,1,37.152,252.469Z" transform="translate(0 -220.313)" fill="#ee5a24"></path><path d="M394.692,252.469h-2.461a1.229,1.229,0,0,1-1.23-1.23V241.23a1.23,1.23,0,0,1,1.23-1.23h2.461a3.7,3.7,0,0,1,3.691,3.691v5.086A3.7,3.7,0,0,1,394.692,252.469Z" transform="translate(-330.469 -220.313)" fill="#ee5a24"></path><path d="M214.691,422a3.691,3.691,0,1,0,3.691,3.691A3.686,3.686,0,0,0,214.691,422Z" transform="translate(-165.234 -387.383)" fill="rgba(24,59,86,0.5)"></path><g transform="translate(35.922 17.227)"><path d="M259.691,425.691A3.686,3.686,0,0,1,256,429.383V422A3.686,3.686,0,0,1,259.691,425.691Z" transform="translate(-242.465 -404.609)" fill="#1e3799"></path><path d="M94.692,227.391A3.7,3.7,0,0,1,91,223.7V213.691a3.691,3.691,0,0,1,7.383,0V223.7A3.7,3.7,0,0,1,94.692,227.391Z" transform="translate(-91 -210)" fill="#1e3799"></path></g><path d="M334.692,227.391A3.7,3.7,0,0,1,331,223.7V213.691a3.691,3.691,0,0,1,7.383,0V223.7A3.7,3.7,0,0,1,334.692,227.391Z" transform="translate(-275.391 -192.773)" fill="#1e3799"></path></g></svg>