<svg xmlns="http://www.w3.org/2000/svg" width="41.836" height="42" viewBox="0 0 41.836 42"><g transform="translate(-208 -208)"><path d="M293.02,208H271.691A3.7,3.7,0,0,0,268,211.691v16.16a3.7,3.7,0,0,0,3.691,3.691H293.02a3.7,3.7,0,0,0,3.691-3.691v-16.16A3.7,3.7,0,0,0,293.02,208Zm0,0" transform="translate(-53.438)" fill="#6c6c6c"></path><path d="M409.914,208H399.25v23.543h10.664a3.7,3.7,0,0,0,3.691-3.691v-16.16A3.7,3.7,0,0,0,409.914,208Zm0,0" transform="translate(-170.332)" fill="#404040"></path><path d="M375.169,264.226l-4.6-3.18a2.027,2.027,0,0,0-3.181,1.668v6.322a2.027,2.027,0,0,0,3.171,1.674l4.6-3.141a2.028,2.028,0,0,0,.009-3.342Zm0,0" transform="translate(-141.958 -46.922)" fill="#ffda2d"></path><path d="M403.544,268.876l-4.294-2.97v9.239l4.284-2.927a2.028,2.028,0,0,0,.009-3.342Zm0,0" transform="translate(-170.332 -51.573)" fill="#fdbf00"></path><path d="M485.6,425.791a4.94,4.94,0,0,0-3.086-1.041c-2.488,0-4.512,1.729-4.512,3.855v5.25a1.23,1.23,0,0,0,1.23,1.23h6.563a1.23,1.23,0,0,0,1.23-1.23v-5.25a3.629,3.629,0,0,0-1.426-2.815Zm0,0" transform="translate(-240.469 -193.043)" fill="#90cc1c"></path><path d="M522.531,435.086a1.23,1.23,0,0,0,1.23-1.23v-5.25a3.629,3.629,0,0,0-1.426-2.815,4.94,4.94,0,0,0-3.086-1.041v10.336Zm0,0" transform="translate(-277.207 -193.043)" fill="#6b0"></path><path d="M365.6,425.791a4.94,4.94,0,0,0-3.086-1.041c-2.488,0-4.512,1.729-4.512,3.855v5.25a1.23,1.23,0,0,0,1.23,1.23h6.563a1.23,1.23,0,0,0,1.23-1.23v-5.25a3.629,3.629,0,0,0-1.426-2.815Zm0,0" transform="translate(-133.594 -193.043)" fill="#ff712f"></path><path d="M402.531,435.086a1.23,1.23,0,0,0,1.23-1.23v-5.25a3.629,3.629,0,0,0-1.426-2.815,4.94,4.94,0,0,0-3.086-1.041v10.336Zm0,0" transform="translate(-170.332 -193.043)" fill="#ff4c04"></path><path d="M245.6,425.791a4.94,4.94,0,0,0-3.086-1.041c-2.488,0-4.512,1.729-4.512,3.855v5.25a1.23,1.23,0,0,0,1.23,1.23h6.563a1.23,1.23,0,0,0,1.23-1.23v-5.25a3.629,3.629,0,0,0-1.426-2.815Zm0,0" transform="translate(-26.719 -193.043)" fill="#27d8f6"></path><path d="M282.531,435.086a1.23,1.23,0,0,0,1.23-1.23v-5.25a3.629,3.629,0,0,0-1.426-2.815,4.94,4.94,0,0,0-3.086-1.041v10.336Zm0,0" transform="translate(-63.457 -193.043)" fill="#3aaaff"></path><path d="M246.145,496.75H211.691A3.7,3.7,0,0,0,208,500.441v3.035a3.7,3.7,0,0,0,3.691,3.691h34.453a3.7,3.7,0,0,0,3.691-3.691v-3.035a3.7,3.7,0,0,0-3.691-3.691Zm0,0" transform="translate(0 -257.168)" fill="#ffda2d"></path><path d="M416.477,496.75H399.25v10.418h17.227a3.7,3.7,0,0,0,3.691-3.691v-3.035a3.7,3.7,0,0,0-3.691-3.691Zm0,0" transform="translate(-170.332 -257.168)" fill="#fdbf00"></path><path d="M491.711,380.605a3.855,3.855,0,1,1-3.855-3.855,3.855,3.855,0,0,1,3.855,3.855Zm0,0" transform="translate(-245.813 -150.293)" fill="#fed2a4"></path><path d="M523.105,380.605a3.86,3.86,0,0,0-3.855-3.855v7.711a3.86,3.86,0,0,0,3.855-3.855Zm0,0" transform="translate(-277.207 -150.293)" fill="#ffbd86"></path><path d="M371.711,380.605a3.855,3.855,0,1,1-3.855-3.855,3.855,3.855,0,0,1,3.855,3.855Zm0,0" transform="translate(-138.938 -150.293)" fill="#fed2a4"></path><path d="M403.105,380.605a3.86,3.86,0,0,0-3.855-3.855v7.711a3.86,3.86,0,0,0,3.855-3.855Zm0,0" transform="translate(-170.332 -150.293)" fill="#ffbd86"></path><path d="M251.711,380.605a3.855,3.855,0,1,1-3.855-3.855,3.855,3.855,0,0,1,3.855,3.855Zm0,0" transform="translate(-32.063 -150.293)" fill="#fed2a4"></path><path d="M283.105,380.605a3.86,3.86,0,0,0-3.855-3.855v7.711a3.86,3.86,0,0,0,3.855-3.855Zm0,0" transform="translate(-63.457 -150.293)" fill="#ffbd86"></path></g></svg>