<svg xmlns="http://www.w3.org/2000/svg" width="42" height="42" viewBox="0 0 42 42"><g transform="translate(-208 -208)"><path d="M222.794,318.41A9.138,9.138,0,0,0,208,325.587v.659a4.53,4.53,0,0,0,4.525,4.525h9.226a4.531,4.531,0,0,0,4.526-4.525v-.659a9.093,9.093,0,0,0-3.482-7.178Zm0,0" transform="translate(0 -96.587)" fill="#ff8a3c"></path><path d="M297.207,318.41a9.045,9.045,0,0,0-5.656-1.961v14.323h4.613a4.531,4.531,0,0,0,4.526-4.525v-.659a9.093,9.093,0,0,0-3.483-7.178Zm0,0" transform="translate(-74.413 -96.587)" fill="#e56705"></path><path d="M250.349,318.5l-.113-.091a9.139,9.139,0,0,0-11.312,0l-.112.091,5.768,5.769Zm0,0" transform="translate(-27.442 -96.587)" fill="#e7f0ef"></path><path d="M297.32,318.5l-.113-.091a9.045,9.045,0,0,0-5.656-1.961v7.821Zm0,0" transform="translate(-74.413 -96.587)" fill="#c5e1e6"></path><path d="M233.236,208a7.161,7.161,0,1,0,7.161,7.162A7.169,7.169,0,0,0,233.236,208Zm0,0" transform="translate(-16.097)" fill="#fdd1a3"></path><path d="M291.551,208v14.323a7.161,7.161,0,0,0,0-14.323Zm0,0" transform="translate(-74.413)" fill="#ffbb85"></path><path d="M439.692,318.41a9.138,9.138,0,0,0-14.794,7.178v.659a4.53,4.53,0,0,0,4.525,4.525h9.226a4.53,4.53,0,0,0,4.525-4.525v-.659a9.092,9.092,0,0,0-3.483-7.178Zm0,0" transform="translate(-193.175 -96.587)" fill="#8db9c4"></path><path d="M514.1,318.413a9.044,9.044,0,0,0-5.656-1.96v14.323h4.613a4.531,4.531,0,0,0,4.525-4.525v-.659a9.092,9.092,0,0,0-3.482-7.178Zm0,0" transform="translate(-267.587 -96.591)" fill="#678c97"></path><path d="M467.248,318.5c-.038-.03-.075-.062-.113-.091a9.139,9.139,0,0,0-11.312,0l-.112.091,5.768,5.769Zm0,0" transform="translate(-220.618 -96.587)" fill="#e7f0ef"></path><path d="M514.218,318.5l-.113-.091a9.044,9.044,0,0,0-5.656-1.96v7.82Zm0,0" transform="translate(-267.587 -96.591)" fill="#c5e1e6"></path><path d="M450.134,208a7.161,7.161,0,1,0,7.161,7.162A7.169,7.169,0,0,0,450.134,208Zm0,0" transform="translate(-209.273)" fill="#ffcdbe"></path><path d="M508.449,208v14.323a7.161,7.161,0,1,0,0-14.323Zm0,0" transform="translate(-267.587 -0.004)" fill="#ffbeaa"></path><path d="M331.243,463.012a9.138,9.138,0,0,0-14.794,7.178v.659a4.531,4.531,0,0,0,4.525,4.525H330.2a4.531,4.531,0,0,0,4.525-4.525v-.659a9.091,9.091,0,0,0-3.483-7.178Zm0,0" transform="translate(-96.587 -225.374)" fill="#3d5959"></path><path d="M405.656,463.012A9.042,9.042,0,0,0,400,461.051v14.323h4.613a4.531,4.531,0,0,0,4.526-4.525v-.659a9.091,9.091,0,0,0-3.483-7.178Zm0,0" transform="translate(-171 -225.374)" fill="#293939"></path><path d="M358.8,463.1l-.113-.091a9.139,9.139,0,0,0-11.312,0l-.113.091,5.769,5.769Zm0,0" transform="translate(-124.027 -225.374)" fill="#e7f0ef"></path><path d="M405.769,463.1l-.113-.091A9.042,9.042,0,0,0,400,461.051v7.82Zm0,0" transform="translate(-171 -225.374)" fill="#c5e1e6"></path><path d="M341.685,352.6a7.161,7.161,0,1,0,7.161,7.161,7.169,7.169,0,0,0-7.161-7.161Zm0,0" transform="translate(-112.685 -128.786)" fill="#a34f3e"></path><path d="M400,352.6v14.323a7.161,7.161,0,0,0,0-14.323Zm0,0" transform="translate(-171 -128.786)" fill="#873f2e"></path></g></svg>