<svg xmlns="http://www.w3.org/2000/svg" width="39.175" height="42" viewBox="0 0 39.175 42"><g transform="translate(-17.219 0)"><path d="M328.963,13.694a1.241,1.241,0,0,1-2.483-.011,11.079,11.079,0,0,0-3.23-7.9l-.024-.024a11.073,11.073,0,0,0-7.846-3.278A1.242,1.242,0,0,1,315.393,0a13.545,13.545,0,0,1,9.587,4l.035.034A13.547,13.547,0,0,1,328.963,13.694Z" transform="translate(-272.569 0)" fill="#dfe7f4"></path><path d="M323.738,69.242a1.242,1.242,0,0,1-2.483-.012,6.14,6.14,0,0,0-1.791-4.38l0,0a6.142,6.142,0,0,0-4.361-1.829,1.241,1.241,0,1,1,.011-2.483,8.6,8.6,0,0,1,6.1,2.553l.014.013A8.612,8.612,0,0,1,323.738,69.242Z" transform="translate(-272.309 -55.569)" fill="#dfe7f4"></path><path d="M383.868,91.669a8.612,8.612,0,0,1,2.51,6.141A1.242,1.242,0,0,1,383.9,97.8a6.14,6.14,0,0,0-1.791-4.38l0,0,1.753-1.759Z" transform="translate(-334.95 -84.138)" fill="#c7cfe1"></path><path d="M430.583,58.483a1.241,1.241,0,1,1-2.483-.011,11.079,11.079,0,0,0-3.23-7.9l-.024-.024,1.753-1.759.035.034A13.547,13.547,0,0,1,430.583,58.483Z" transform="translate(-374.188 -44.789)" fill="#c7cfe1"></path><g transform="translate(17.219 4.22)"><path d="M27.941,353.252c-.033.034-3.04,3.046-3.063,3.069a.864.864,0,0,1-1.221,0l-3.088-3.094-.031-.031-3.066-3.071a.862.862,0,0,1,0-1.217l2.535-2.546.514-.515a.862.862,0,0,1,1.221,0l3.07,3.065h0l.03.03,3.1,3.094A.862.862,0,0,1,27.941,353.252Z" transform="translate(-17.219 -321.461)" fill="#334973"></path><path d="M65.066,390.374c-.033.034-3.04,3.046-3.063,3.069a.864.864,0,0,1-1.221,0l-3.088-3.094-.031-.031,3.15-3.159,1.124-1.128h0l.03.03,3.1,3.094A.862.862,0,0,1,65.066,390.374Z" transform="translate(-54.344 -358.584)" fill="#1f3259"></path><path d="M203.531,389.326l-2.257,2.26a1,1,0,0,1-1.409,0l-6.491-6.481a1,1,0,0,1,0-1.409l2.257-2.26a1,1,0,0,1,1.409,0l6.491,6.481A1,1,0,0,1,203.531,389.326Z" transform="translate(-178.656 -354.099)" fill="#1f3259"></path><path d="M57.716,244.835l-1.776,1.779L52.3,250.262l-1.907,1.911a1.426,1.426,0,0,1-2.016,0l-4.214-4.207L40.48,244.29l-.538-.537a1.425,1.425,0,0,1,0-2.016l7.326-7.338,5.222,5.216Z" transform="translate(-37.694 -219.392)" fill="#ff4d4d"></path><path d="M109.617,303.2l-1.776,1.779-3.642,3.648-1.907,1.911a1.426,1.426,0,0,1-2.016,0l-4.214-4.207,1.125-1.127,7.2-7.224Z" transform="translate(-89.594 -277.757)" fill="#cd0000"></path><path d="M158.191,73.4l-13.833,3.493-5.228-5.22-5.223-5.215,3.472-13.838a1.477,1.477,0,0,1,2.488-.738l9.518,9.5.01.01,9.529,9.514A1.476,1.476,0,0,1,158.191,73.4Z" transform="translate(-124.336 -51.451)" fill="#dfe7f4"></path><path d="M216.634,184.6,202.8,188.1l-5.228-5.22,10.255-10.285.01.01,9.529,9.514A1.476,1.476,0,0,1,216.634,184.6Z" transform="translate(-182.778 -162.655)" fill="#c7cfe1"></path></g></g></svg>